<svg xmlns="http://www.w3.org/2000/svg" width="1440" height="488.26" viewBox="0 0 1440 488.26"><defs><style>.cls-1 { isolation: isolate; } .cls-2 { fill: #28328c; } .cls-16, .cls-3, .cls-6 { fill: #3250d2; } .cls-4 { fill: #0078c8; } .cls-5 { fill: #14bef0; } .cls-11, .cls-12, .cls-16, .cls-18, .cls-6, .cls-7 { mix-blend-mode: multiply; } .cls-10, .cls-18, .cls-7 { fill: #00238c; } .cls-7 { opacity: 0.48; } .cls-8 { fill: #25a9e0; } .cls-9 { fill: #ffc534; } .cls-11 { fill: #6a5faa; } .cls-12 { fill: #2b3789; } .cls-13 { fill: #ffc828; } .cls-14 { fill: #f27821; } .cls-15 { fill: #ff6e00; } .cls-16 { opacity: 0.71; } .cls-17 { fill: #445aa8; } .cls-18 { opacity: 0.35; } .cls-19 { fill: none; }</style></defs><title>Consumer_homepage</title><g class="cls-1"><g id="Layer_1" data-name="Layer 1"><path class="cls-2" d="M-1.51.11h1441.59v488.05H-1.51z"/><path class="cls-3" d="M239.31 375.64a65.21 65.21 0 0 0-16.6-.89c-4.09.29-6.88-1.69-10.66-2-1.35-.13-3.57.71-5 .58-3.63-.34-7.56-1.69-11.39-2-8.1-.76-18.06-.15-25.85-.88-13.1-1.22-23.3-3.23-29.33-3.73-19.37-1.6-21.81 11.61-25.87 18s-7.18 14.41-11.31 18.53c-2.13 2.13-27.91 40.45-28.48 43.47s-4.7 6.84-5.08 8.59-3.15 3.46-3.32 4.43-2.48.77-2.89 2.1-2.65 4-3.9 5.84c-6.74 10.09-26.1 17.68-27.24 19l59.24-.17H156l116.15-45.38-25.54-67.64z"/><path class="cls-3" d="M124 164.89c7.53 14.83 21.79 24.08 35.61 32.46a4.09 4.09 0 0 0-1.52.29c-1.87.73-2.77 2.29-2 4.12a1 1 0 0 0 1.51.47 20 20 0 0 0 2.95-2.31c.43.16.86.34 1.26.52 4.38 14.3 3.17 29.25 2.77 44a457.35 457.35 0 0 0 1.06 46.06 464.51 464.51 0 0 0 14.2 84.38l-.07 5.23c0 1.2 1.7 1.11 1.94.06a1.08 1.08 0 0 0 1.3-1 .88.88 0 0 0 .81-.78c4.64-28.67 10-57.35 13.71-86.16.64-5.07 1.13-10.16 1.48-15.24a39.17 39.17 0 0 0 15.32-18.41c4.2-10.29 6.05-25.37-3.69-33.19a31.26 31.26 0 0 0-11.64-5.56q-.23-5.37-.5-10.74a.86.86 0 0 0 .79.3l2.27 1.59a9.94 9.94 0 0 1 .81.93c.55.73 2 .38 1.81-.66-.42-2.33-1.79-3.74-3.94-3.88 23.52-7.53 34.41-34 32.93-57.89-.38-6.07-1.38-11.05-6.08-15.23a45.62 45.62 0 0 0-17.38-9.13c-10.23-3-26.33-3.87-29.93 8.95-.35 1.24 1.62 1.6 2 .37 3.94-14 24.64-9.28 34.15-4.87 5.35 2.48 11.88 6.1 14 11.94 1.92 5.2 1.58 11.83 1.27 17.27-1.19 20.78-12.93 41.82-33.66 47.29a44 44 0 0 1-21-31.35 1 1 0 0 0-.81-.84 64.68 64.68 0 0 0 5.47-22.21c.58-13.08-4.82-27.4-16.57-34.24-12.08-7-28.11-3.41-37 7C118 135.71 117.45 152 124 164.89zm73.11 110.62v.28a33.89 33.89 0 0 1-13.95 4.54v-1.21a3.3 3.3 0 0 1-1.19.59c-7.45-7.83-10.5-21.25-11.51-31.06-.7-6.75 0-14.14 3.54-20.08 4.67-7.76 14.88-8.6 22.95-7h.17v.43a4.87 4.87 0 0 1 2 .39v-.27c6.88 1.8 13.35 5.53 15.59 12.71s.72 15.39-1.88 22.12a37.58 37.58 0 0 1-13.65 17.5v-.15a6.08 6.08 0 0 1-2.06 1.21zm-15.24 99.13l1.23-90.13a6.25 6.25 0 0 1 .49.5c1 .72 1.58 1.69 2.71 2.24a4.49 4.49 0 0 0 4.7-.25c.83-.48.34-1.58-.39-1.8a19.17 19.17 0 0 1-5.82-3l.16-.12a35.81 35.81 0 0 0 12-3.92c-.39 5.2-.91 10.4-1.6 15.59-3.66 27.47-8.66 54.81-13.11 82.16zm-17.59-173a6.46 6.46 0 0 0 2 .58 1 1 0 0 0 1.18-1.07c-.27-2.55-1.82-4.13-4.18-4.16 4.17-5.16 7.23-12 9.86-17.28q.89-1.79 1.72-3.62a46.07 46.07 0 0 0 19.86 30.5 11.83 11.83 0 0 0-2.4.54 1 1 0 0 0 .43 1.94c1.07-.14 2.12-.33 3.15-.54h.65a1 1 0 0 0 0 .21q.25 5.31.49 10.62c-7.8-1.54-16.25-.56-21.66 4.35-9.17 8.32-7.88 23.75-5.15 34.51 2 7.78 4.48 16.07 9.56 22a3.15 3.15 0 0 0-.84.06 3.37 3.37 0 0 0-2.92 3.67 1 1 0 0 0 1.08.91 13 13 0 0 0 4-.6l-1.13 83a460.17 460.17 0 0 1-12.58-80.76q-1.49-23-.68-46c.44-13.05 1.02-26.19-2.44-38.87zm-41.35-44.84c-5.18-18.07 5.45-38.86 25.18-40.89 18.5-1.91 30.69 15.34 31.24 32.24.31 9.57-2.56 19-6.51 27.59a133.41 133.41 0 0 1-6.58 12.4 79 79 0 0 1-5 7.9c-15.62-9.48-32.99-20.62-38.33-39.25z"/><path class="cls-2" d="M162.89 480.2c9.7.84 15.91-6.69 16.31-15.78a25.5 25.5 0 0 0-.21-4.55c6-2.35 12.24-4.29 18.42-6.33q7.16-2.36 14.17-5.11a16.63 16.63 0 0 0 11.26 9.09 16.39 16.39 0 0 0 19.57-13.63c1.24-7.58-1.85-18.89-9.82-20.6h-.08a18.93 18.93 0 0 0-17.15 4.33 199.11 199.11 0 0 1-13.9-20 1.52 1.52 0 0 0-.56-.55 8.14 8.14 0 0 0-1.09-4.23c-1-1.67-3.64-.3-2.67 1.38 1.67 2.88.41 7.13-2.89 8.24-1.81.61-1.21 3.55.62 2.94a8.92 8.92 0 0 0 5.1-4.52 204.72 204.72 0 0 0 13.33 19 17.66 17.66 0 0 0-3.22 6.83 17.3 17.3 0 0 0 .39 9q-8.52 3.33-17.25 6.14c-5 1.61-10 3.24-14.84 5.11-1.49-5.31-5-9.51-11-9.53l.15-.77c.7-3.73 1.73-8 .86-11.86a22.46 22.46 0 0 0 3.74-1c1.81-.67.42-3.33-1.38-2.67a17.33 17.33 0 0 1-3.45.88 1.54 1.54 0 0 0-2.55.19 17.94 17.94 0 0 1-4.62-.6c-1.86-.49-2.82 2.35-.95 2.85a21.09 21.09 0 0 0 6.21.71c1.06 3.7-.08 8.59-1 12.66a1.36 1.36 0 0 0-.58.38c-7.29 1.52-13.73 7-14.42 14.86-.75 8.11 5.01 16.4 13.5 17.14zm51.45-32.89c3.88-1.57 7.74-3.21 11.54-5a1.48 1.48 0 0 0-.3-2.74q-4.33-4.69-8.34-9.63a15.33 15.33 0 0 1 10-4.26 1.37 1.37 0 0 0 1.45.55c10.29-2.08 12.46 13.35 10 20.1a13.39 13.39 0 0 1-17.55 7.54 14 14 0 0 1-6.8-6.57zm-1-11a15.52 15.52 0 0 1 2-4q3.47 4.25 7.18 8.32-4.57 2.06-9.21 3.94a14.09 14.09 0 0 1-.02-8.32zm-37.61 21.68a99.16 99.16 0 0 0-10 4.69 45 45 0 0 1 1-12 1.55 1.55 0 0 0 .48-.24c4.53-.06 7.33 3.23 8.48 7.49zm-22.89 3a14.78 14.78 0 0 1 10.82-9.76 40.42 40.42 0 0 0-.55 14.36 4 4 0 0 0 3.38.16 94.2 94.2 0 0 1 9.77-4.66c.71 8.52-4.28 18.64-14.9 15.88-6.68-1.83-10.52-9.61-8.56-16.08z"/><path class="cls-4" d="M185 441.31s-1.27 9.82-1.32 11.56 5.72-.56 5.72-.56 1-5.55-.43-8-1.34-3.38-3.97-3z"/><path class="cls-5" d="M180.43 431.16s8.89-1.54 12.83.13a3.38 3.38 0 0 1 1.43 1c2.4 3.21 2.75 7.25 3.23 9.51s1.26 14.18 1.88 14.77-3.42-.23-6 1.53l-2.61 1.75s-.85-9.9-1-13.06-1.28-6.09-4.31-6.45-11.67-1.74-11.67-1.74-10.21-1.6-12.89-7.15.69-31.81 3.55-33.39 7.19-3.23 8.71-1.83S179.5 401 184 405s9 6.77 11.45 6.51 3.55 1.68 3 2.55-2.66 3.74-2.82.59-2.38-1.94-3.13-2a30.18 30.18 0 0 1-11-3.1c-5-2.64-7.49-4.08-8-4s-.23 2.42.47 8.09-1.32 11.26 1.85 12.31 11.35-1 13.3.13a9.61 9.61 0 0 1 3.2 3.53l.5.91s-7.98-.98-12.39.64z"/><path class="cls-4" d="M194.75 457.59s-.45 2.81.33 3.27 5.07-.8 6.18-.77 2.89.71 2.7 1.54l-12.33 3.85a16.43 16.43 0 0 1-.49-5.61 10.36 10.36 0 0 1 1.35-1.06 21 21 0 0 1 2.26-1.22z"/><path class="cls-2" d="M192.94 465.51a17.59 17.59 0 0 1 5.46-2.06c1.24-.35 1.64 1.61.41 2-1.48.42-3.25.69-4.53 1.58-1.04.7-2.39-.78-1.34-1.52zM186.41 458.15a14.62 14.62 0 0 1 2.66-.49 1 1 0 0 1 1.18.77 1 1 0 0 1-.77 1.18 14.62 14.62 0 0 0-2.66.49c-1.24.36-1.65-1.6-.41-1.95z"/><path class="cls-4" d="M184 453.36s-.29 3.61.29 4.69c.25.47.91.74 2.44 0s4.24-.24 4.24-.24l-.24-2.94a9.26 9.26 0 0 0-2.11.32c-1.34.33-.94-2.27-.78-2.32s-2.84.97-3.84.49z"/><path class="cls-6" d="M172.8 395.71a11.9 11.9 0 0 1 2.63.11 2.7 2.7 0 0 1 1.27 0 1.81 1.81 0 0 1 .71.39h.07a2 2 0 0 1 .6 1.45l.3 2.09c.1.68-.55 1.48-1.29 1.15-1.21-.53-1.28-1.51-1.71-2.61a.9.9 0 0 0-.11-.18l-1 .1a1 1 0 0 1-.88-.36 8.23 8.23 0 0 1-.91-.19c-1.18-.31-.79-1.99.32-1.95z"/><path class="cls-2" d="M161.32 431.45c-2.64-5.55.69-31.81 3.55-33.39s7.19-3.23 8.71-1.83S179.5 401 184 405s9 6.77 11.45 6.51 3.55 1.68 3 2.55-2.66 3.74-2.82.59-2.38-1.94-3.13-2a30.18 30.18 0 0 1-11-3.1c-5-2.64-7.49-4.08-8-4s-.23 2.42.47 8.09-1.32 11.26 1.85 12.31-11.82 11.05-14.5 5.5z"/><path class="cls-4" d="M179.45 401.1c1.43 1.19 3 2.52 4.58 3.92 4.53 4 9 6.77 11.45 6.51s3.55 1.68 3 2.55-2.66 3.74-2.82.59-2.38-1.94-3.13-2a30.18 30.18 0 0 1-11-3.1l-4.15-2.22c-2.26-1.23-.6-8.47 2.07-6.25z"/><path class="cls-2" d="M180.78 382.58s.18 11-2.7 15.07l.3 2.09 1.07 1.37s1.7 2.14 3.73-2 1.19-14.2.45-16 .3-1.58 0-3-.46-2.2-1.23-2.84-2.79-.61-2.62.55-1.17.14-1.26.27-.1.68.34 1.63 1.6 1 1.62 1.42a9.08 9.08 0 0 0 .3 1.44z"/><path class="cls-3" d="M183 249.71a4.4 4.4 0 0 1 2.05-3.8c2.81-1.53 5.45.93 7.77 2.16a11 11 0 0 0 1.35.61 23.58 23.58 0 0 0 .62-4.09.58.58 0 0 1-.25.06c-1.65.81-4.66-.1-6-.57a8.16 8.16 0 0 1-5.49-5.59.51.51 0 0 1 .43-.67c4.34-.44 8 1.59 11.32 4.17a22.75 22.75 0 0 0-.61-4.15c-.15-.62.79-1 .94-.35a23.77 23.77 0 0 1 0 11.44 3.47 3.47 0 0 0 .93 0c1.29-.14 2-1 3.06-1.52A4 4 0 0 1 201 247a3.7 3.7 0 0 1 1.23.23.43.43 0 0 1 .19.13l.2.11a4 4 0 0 1 1.2.87 2.19 2.19 0 0 1 .36.4c0 .06.07.13.1.19a3.9 3.9 0 0 1 .48 1.09 1.5 1.5 0 0 1 .09 1.67 4.4 4.4 0 0 1-.11.52 32.5 32.5 0 0 1-2.42 5.08c-.46.93-.89 1.89-1.4 2.78a13.47 13.47 0 0 1-1.75 2.62c-1 1.09-2.28 2.32-3.78 2.48-1.82.2-2.87-1.5-4.66-1.5a2.24 2.24 0 0 1-.46 0 7.74 7.74 0 0 1-1.15.45 2.92 2.92 0 0 1-2.3-.09 4.28 4.28 0 0 1-1.32-1.16c-1.72-1.17-2.1-3.78-2.37-6a20.79 20.79 0 0 1-.13-7.16zM579.23 245.4a20 20 0 0 0-6.24 7.26c-.59 1.14 1.26 1.9 1.84.76a17.83 17.83 0 0 1 5.61-6.43c1.04-.75-.17-2.33-1.21-1.59zM586 253.69a32 32 0 0 1-5.24 1.6c-1.25.26-1 2.24.27 2a35 35 0 0 0 5.73-1.73 1 1 0 0 0-.76-1.87zM568.82 306.51c.5-3.42 1-6.84 1.43-10.26q1.33-10 2.44-19.93c.4-3.61 2.39-10.08-.47-13.2-1.59-1.74-4.27-2.16-6.47-2.64a46.31 46.31 0 0 0-9.07-1.06h-2.27a46.13 46.13 0 0 0-6.17-.1c-2.7.14-7.06.09-9.35 1.69a1.15 1.15 0 0 0-.32.36.87.87 0 0 0-.36.69q-.66 10.64-1.12 21.29c0 .43-.06.86-.09 1.28l-.74 8.48-1.55 17.62c-.49 5.53 5.25 7.91 9.14 6.25a65.76 65.76 0 0 0 17.42-2.13c2.31-.33 4.44-1 5.77-2.58s1.49-3.81 1.78-5.76z"/><path class="cls-7" d="M563 301.52c.11-1.45.15-2.89.16-4.34l.84-5.48c.94-6.09 2.21-12.23 2.6-18.38.29-4.42 0-7.72-5-8.38a46.69 46.69 0 0 0-8.4-.31 29.41 29.41 0 0 0-5.57-.16 6.3 6.3 0 0 0-2.17.46 1.19 1.19 0 0 0-1.17.53 1.81 1.81 0 0 0-.94 2.14 20.21 20.21 0 0 0-.27 3l-1 9.82a138.2 138.2 0 0 0-2 21.53 3.62 3.62 0 0 0 .11.87 7 7 0 0 0 .35 2.9 2.8 2.8 0 0 0 2.1 2 .57.57 0 0 0 .33 0 5.26 5.26 0 0 0 1.19.14c3.22 0 6.51-.43 9.73-.64 2.06-.14 5.39.34 7.08-1.1a2.68 2.68 0 0 0 .35-.37.63.63 0 0 0 .44-.24 6.65 6.65 0 0 0 1.24-3.99z"/><path class="cls-8" d="M551.34 310.6a1.21 1.21 0 0 0-.93-.24 1.28 1.28 0 0 0-1 1.38 1.79 1.79 0 0 0 2.89 1.11 1.33 1.33 0 0 0-.96-2.25z"/><path class="cls-3" d="M563.14 270.69c-.84.63-2.75 0-3.69 0-1.5 0-3 .28-4.5.13a45.93 45.93 0 0 0-7.72-.46c-.85.06-.65 1.37.2 1.31 3.36-.22 6.53.65 9.84.47 1.65-.09 3.25.11 4.87.13a2.44 2.44 0 0 0 1.81-.54c.7-.51-.12-1.55-.81-1.04zM563.12 275.54c-1.81-.53-3.38.23-5.2-.14-.63-.13-.82-.48-1.51-.58a15.35 15.35 0 0 0-2 .25 17.25 17.25 0 0 1-5.07-.82c-.9-.25-1.41-.45-2.17.24s.19 1.62.82 1c.1-.1 2.68.64 3.13.69a27.58 27.58 0 0 0 3.88.39c.37 0 .71-.35 1-.35 1.16 0 1 .45 1.78.65 1.56.38 3.3-.59 4.79-.16.88.29 1.37-.93.55-1.17zM561.39 282.14c-.61.19-1.51-.63-2.14-.62-.86 0-1.46.47-2.33.46-1 0-1.84-.69-2.89-.59-.74.07-1.23.52-2 .53s-1.36-.48-2.11-.49-.9.41-1.48.52c-1.11.2-2-.64-2.75.45-.5.7.56 1.49 1.06.8-.24.33 2 .16 2 .14.53-.13.84-.52 1.51-.47.4 0 .82.4 1.23.47a3.55 3.55 0 0 0 1.4-.08c.62-.11.72-.37 1.44-.38s1 .29 1.65.43a6.34 6.34 0 0 0 1.43.18c1 0 2.07-.08 3.07 0 .73 0 .58.17 1.41-.09s.31-1.52-.5-1.26zM554.95 286.67a14.23 14.23 0 0 0-5.66-.43 1.12 1.12 0 0 1-1.39-.14 2 2 0 0 0-.45-.36 1.49 1.49 0 0 0-.6-.14c-.62 0-.88.4-1 .95s.66.87 1.09.51a11.64 11.64 0 0 0 1.2.69 2.85 2.85 0 0 0 1.49-.21 5.5 5.5 0 0 1 1.85.05 10.13 10.13 0 0 1 3 .31c.79.26 1.28-.97.47-1.23z"/><path class="cls-9" d="M549.5 300.15a.68.68 0 0 0-.93-.11 5.74 5.74 0 0 1-1.17.88l-.07-.16a2.61 2.61 0 0 0-.19-.34 1 1 0 0 0-1.55-.24c-.59.5-.43 1.27-.25 1.92a3.57 3.57 0 0 0 1.25 2 .63.63 0 0 0 .25.11 1.48 1.48 0 0 0 .56.27.3.3 0 0 0 .42-.07 3.38 3.38 0 0 0 .54-.6.66.66 0 0 0 .13-.13c.67-.83 1.86-2.53 1.01-3.53z"/><path class="cls-3" d="M568.58 252.71a12.2 12.2 0 0 1 .55-5.31c.41-1.21-1.43-2-1.84-.76a14.58 14.58 0 0 0-.68 6.34 1 1 0 0 0 1.97-.27z"/><path class="cls-10" d="M504.78 330s7.26-9.64 13.72-6.28 5.37 7.52 6.26 13.91a126.52 126.52 0 0 1 .73 16.16c0 1.68-7.46 3.93-9.75 4.61S501 333.76 502.9 331.88z"/><path class="cls-9" d="M508.05 304a34.28 34.28 0 0 0-.37 9c.1 2 .12 5.88 1.66 7.37a.92.92 0 0 0 1.42-.24v-.08a.92.92 0 0 0-.37-1.23 10 10 0 0 1-.66-3.21 32.59 32.59 0 0 1-.29-3.84 30.51 30.51 0 0 1 .37-7.34.91.91 0 0 0-1.76-.43z"/><path class="cls-3" d="M503.37 331.4s3.33-4.2 4.06-4.76 3.51-2.51 4.46-2.7 4.53-1.83 8.32.81c0 0-4.28-9.37-9.29-8.12s-8.87 3.93-9.34 5.58c-.38 1.34-.11 2.75.38 4.9a34.82 34.82 0 0 0 1.41 4.29z"/><path class="cls-11" d="M522.89 335.56a60 60 0 0 0-14.36 5.44c-.52.28-.06 1.06.45.79a59.1 59.1 0 0 1 14.14-5.36.45.45 0 0 0-.23-.87zM518.74 339.58a72.15 72.15 0 0 0-10 3.63c-.54.23-.08 1 .45.79a70.52 70.52 0 0 1 9.82-3.54.46.46 0 0 0-.27-.88zM515.68 344.87a10 10 0 0 0-3.76 1.65c-.47.34 0 1.13.45.79a9.33 9.33 0 0 1 3.54-1.56c.58-.12.34-1-.23-.88z"/><path class="cls-12" d="M519.42 323.88a10.19 10.19 0 0 0-8.31-.05 25.9 25.9 0 0 0-8 6.81c-.35.47-.09 1.19.29.76a36.45 36.45 0 0 1 6.95-6.1 10.31 10.31 0 0 1 9.63-.55c.49.25-.04-.59-.56-.87z"/><path class="cls-13" d="M808 342.44c-7.51-8.1-18.47-14.59-29.61-15.44h-1.11a25.2 25.2 0 0 0-7.55-1.47c-8.21-.18-16.94 2-23 7.92-5.77 5.65-9.93 12.94-10.34 21.2a59.62 59.62 0 0 0 1 14.4c11.44-.3 14 0 36.71-1.92 15.78-1.35 43.29 0 43.2-1.85a36.08 36.08 0 0 0-9.3-22.84z"/><path class="cls-10" d="M486.77 391.88c0-.42.08-1.86 0-2.24q-3.86-22-5.71-44.33a1.9 1.9 0 0 0-2.12-1.57 241.32 241.32 0 0 0-62.79 14.39 1.61 1.61 0 0 0-1.09 1.83 1.86 1.86 0 0 0-.08 1.45 152 152 0 0 1 7.63 38.33 1.51 1.51 0 0 0 .46 1 1.76 1.76 0 0 0 2 2.41c10-2.18 20.11-4.3 30.38-5.12 9.6-.77 28.48-3.63 28.51-3.65a2.49 2.49 0 0 0 .57-.05c.03-.01 2.26-1.18 2.24-2.45z"/><path class="cls-3" d="M490.45 344.61c-3.66-4.79-9.14-10.09-14-12.64-3.66-1.92-6.79-.91-10.59.11l-13.55 3.63c-8.66 2.32-17.07 3.45-25.65 6a26.81 26.81 0 0 0-7 2.9c-.36.14-1.48.43-1.84.57a9.18 9.18 0 0 0-4.07 3.9 1.9 1.9 0 0 0-.31.38c-2 3.27-.23 8.09-1 11.84-.31 1.48-.38 6.87.84 6.43 6.41-2.31 11.21-5 17.74-7l4.17-.36a41.29 41.29 0 0 0 14.15-3.27c1.17-.5 3.92-.45 5.08-1 12-2.66 22.79-5.56 35.05-6.89 1.17-.03 3.61-1.21.98-4.6z"/><path class="cls-7" d="M422.31 354.26h-.1a7.22 7.22 0 0 1-.42-1.45.29.29 0 0 0 .25 0 2.41 2.41 0 0 0 .89-3.4 1.61 1.61 0 0 0-2.86.31.32.32 0 0 0 .35.42c.25.91.51 1.82.78 2.72.19.66.26 1.79.91 2.15a.32.32 0 0 0 .37-.1.37.37 0 0 0 .1-.4.32.32 0 0 0-.27-.25zm-1.41-4.67a1 1 0 0 1 .64-.29 1 1 0 0 1 1 .79 1.72 1.72 0 0 1-.76 2.16.3.3 0 0 0-.12.09v-.06q-.38-1.35-.76-2.69zM428.74 352a.32.32 0 0 0-.19-.33h-.17a7.66 7.66 0 0 1-.22-1l-.31-1.24a.32.32 0 0 0-.09-.34l-.57-2.24c-.1-.38-.72-.3-.62.09l.58 2.29a5.76 5.76 0 0 1-1.79.9.25.25 0 0 0-.18.16l-.74-2.3c-.12-.38-.69-.13-.57.25l1.69 5.23c.11.33.53.17.6-.09l.12-.47c.06-.24-.15-.36-.35-.32l-.63-2a.32.32 0 0 0 .32.08 6.16 6.16 0 0 0 1.7-.82l.13.5c.15.58.18 1.63.72 2a.32.32 0 0 0 .38 0 .4.4 0 0 0 .19-.35zM432.68 351.82a11.29 11.29 0 0 0-2.48-5.31.29.29 0 0 0-.15-.1v-.13c0-.4-.58-.48-.62-.08a22.63 22.63 0 0 0 0 4.28.34.34 0 0 0 0 .34c.06.55.14 1.1.25 1.64a.31.31 0 0 0 .62 0l.08-.66a.29.29 0 0 0-.22-.32c0-.21-.05-.43-.08-.64a3.35 3.35 0 0 0 1.38-.82 10.66 10.66 0 0 1 .54 1.89c.13.4.75.31.68-.09zm-1.46-2.36a2.67 2.67 0 0 1-1.14.76 22.12 22.12 0 0 1-.07-3 10.78 10.78 0 0 1 1.29 2.14zM436.71 350.55c0-.4-.64-.31-.62.09v.15a11.77 11.77 0 0 0-2.16-2.08c.91-.86 2.56-2.62 1.48-3.6a2.11 2.11 0 0 0-3.09 1.12.29.29 0 0 0 0 .17 40.73 40.73 0 0 0 1.25 5c.11.33.68.17.59-.17l-.21-.87a.31.31 0 0 0-.1-.16c-.09-.31-.17-.63-.25-.94a11.35 11.35 0 0 1 2.34 2.37.31.31 0 0 0 .49 0 1.56 1.56 0 0 0 .28-1.08zm-3.81-4.28a1.43 1.43 0 0 1 1.07-.74q.48-.3.65.33.67.45 0 1a7.65 7.65 0 0 1-1.28 1.5c-.15-.69-.34-1.36-.43-2.09zM439.61 343.9a9.35 9.35 0 0 0-.82 2.36l-1.34-1.36c-.27-.27-.72.07-.52.34a22.42 22.42 0 0 0 .88 4.85c.1.33.54.18.6-.09a2.2 2.2 0 0 0 0-1.1.32.32 0 0 0-.32-.24 21.83 21.83 0 0 1-.44-2.76l1 1.06v.22a.32.32 0 0 0 .57.21c.25 0 .49-.26.27-.48l-.15-.15a8.88 8.88 0 0 1 .75-2.43.28.28 0 0 0 .07-.12v-.11a.31.31 0 0 0-.55-.2zM442.56 349.46l-1.74-5.93c-.11-.38-.68-.13-.57.25l1.75 5.92c.1.39.67.14.56-.24zM446.5 347.72a10.14 10.14 0 0 0-2.51-4.62c-.26-.28-.72.06-.52.34a.32.32 0 0 0-.51.19 21.63 21.63 0 0 0-.17 5.36c0 .4.65.31.62-.09-.06-.69-.08-1.37-.08-2a.26.26 0 0 0 .4 0 2.84 2.84 0 0 1 1.44-.71h.1a9.39 9.39 0 0 1 .61 1.68c.12.32.71.24.62-.15zm-3.15-1.33a21.21 21.21 0 0 1 .25-2.7.28.28 0 0 0 0-.16 9.78 9.78 0 0 1 1.46 2 3.43 3.43 0 0 0-1.72.86zM450.93 345.81a1.81 1.81 0 0 1-2.94-.51 2.67 2.67 0 0 1-.25-1.57c.11-.74.81-1.88 1.65-1.13.3.27.68-.23.38-.5a1.47 1.47 0 0 0-2.15.28 3.1 3.1 0 0 0-.37 2.76 2.47 2.47 0 0 0 4.17 1.05c.28-.3-.22-.68-.49-.38zM454.79 345.33a.3.3 0 0 0-.26-.18c-.11-.57-.36-1.33-.38-1.41s0-.23-.06-.35a.33.33 0 0 0 0-.32 3.85 3.85 0 0 1 .05-1.22c.18-.8.76-1.38.6-2.23-.08-.39-.69-.3-.62.09.13.66-.48 1.38-.61 2a4 4 0 0 0-.07.66 16.17 16.17 0 0 1-1.56-2c-.22-.33-.71.05-.49.38a16.55 16.55 0 0 0 2.1 2.53v.3c.11.64.22 1.93.86 2.25a.32.32 0 0 0 .37-.1.4.4 0 0 0 .07-.4z"/><path class="cls-14" d="M471.66 337.81q-1.06.41-2.15.73c-.06-.34-.13-.67-.22-1-.14-.55-.22-1.43-.91-1.52a.32.32 0 0 0-.33.19v.09c-.14.27.16.47.39.39a5.13 5.13 0 0 1 .53 2c-.59.16-1.18.31-1.78.43-.39.08-.3.7.09.62.59-.12 1.18-.27 1.76-.42 0 .27.05.49.06.58.06.61-.12 1.36.36 1.8a.31.31 0 0 0 .38 0l.08-.06a.31.31 0 0 0 .12-.29v-.11a.31.31 0 0 0-.28-.26 13.06 13.06 0 0 1-.06-1.52v-.29q1.17-.34 2.31-.78c.27-.15-.01-.72-.35-.58z"/><path class="cls-7" d="M434 376a11 11 0 0 1-1.05-3.67 1.57 1.57 0 0 0-2.16-1.2 12.23 12.23 0 0 1-3.17.81 1.51 1.51 0 0 0-1.22 1 1.32 1.32 0 0 0-.61 1.47l.64 3.14c.18.9.28 1.88 1.16 2.38a2.48 2.48 0 0 0 2.47-.3l3.14-1.63a1.58 1.58 0 0 0 .8-2zM435.6 386.16a20.73 20.73 0 0 0-1-5.26 1.56 1.56 0 0 0-1.6-.9 14.15 14.15 0 0 0-4.34 1.9 1.27 1.27 0 0 0-.64 1.27 1.34 1.34 0 0 0 0 .5 17.78 17.78 0 0 1 .38 2.31 2.4 2.4 0 0 0 .66 1.89 1.57 1.57 0 0 0 2.17 1.48l3.48-1.5a1.61 1.61 0 0 0 .89-1.69zM436.64 394.6q-.36-1.72-.57-3.47a1.58 1.58 0 0 0-2.16-1.2l-3.09 1.16a1.34 1.34 0 0 0-.91 1.53 2 2 0 0 0 .06 1 24.55 24.55 0 0 1 .59 2.47 1.59 1.59 0 0 0 1.77 1.31 1.48 1.48 0 0 0 .39-.12 1.89 1.89 0 0 0 1.59-.53 5 5 0 0 1 1-.34 1.58 1.58 0 0 0 1.33-1.81zM482.75 392.71c-1.34-7.09-2.65-14.19-4.07-21.26-.32-1.58-.54-3.24-2.42-3.55a9.79 9.79 0 0 0-3.72.65l-6 1.48a1.76 1.76 0 0 0-.69.34 1.32 1.32 0 0 0-.59 1.46l4.74 23.38a1.59 1.59 0 0 0 2.16 1.2 40.65 40.65 0 0 1 9.29-1.93 1.57 1.57 0 0 0 1.3-1.77zm-13-14.46l6.52-2.59.31 1.58q1.38 7.18 2.74 14.36a43.92 43.92 0 0 0-6.64 1.41z"/><path class="cls-9" d="M479.19 351.77q3.63 18.93 5.69 38.09c.2 1.9 3.2 2 3 .07q-2.08-19.56-5.78-38.93c-.36-1.86-3.27-1.12-2.91.77zM491.75 344.64c-1.32-3.28-4.28-6.28-6.7-8.6a22.25 22.25 0 0 0-10.33-5.88c-1.88-.44-2.72 2.44-.84 2.88a19.2 19.2 0 0 1 9 5.1c2.39 2.29 5.58 5.33 6.39 8.62.47 1.93 3.12 1.13 2.91-.73l-.07-.57a1.26 1.26 0 0 0-.36-.82z"/><path class="cls-10" d="M409.2 401.84a2.64 2.64 0 0 0 0-1 434.68 434.68 0 0 1-10.95-83.57 2.15 2.15 0 0 0-2.77-2.16L364 327.57c-5 2-9.94 3.82-14.86 5.88-3.33 1.4-6.94 3.17-9 6.57-2.36 3.93-1.65 8.32-.66 12.45 1.33 5.54 2.76 11.05 4.17 16.57q3.61 14.13 7.4 28.2a86 86 0 0 0 4.11 17.11 4.28 4.28 0 0 0 3.94 2.89 4.09 4.09 0 0 0 .38.32c2.64 1.93 8-.48 10.88-1.09 4-.85 8.07-1.57 12-2.62 7.61-2 14.93-5.3 22.59-7.24 2.73.39 4.42-2.36 4.25-4.77z"/><path class="cls-7" d="M356.74 361.14l-.66-3.19a1.88 1.88 0 0 0-2.32-1.26 15.53 15.53 0 0 0-4.68 2.65 1.79 1.79 0 0 0-.28 2.19 1.49 1.49 0 0 0 .41 1l.05 2.22a1.88 1.88 0 0 0 2.4 1.74c1.57-.6 4.46-1.08 5.16-2.82a4.3 4.3 0 0 0-.08-2.53zM374.13 353.17c-.13-.43-.39-.87-.27-1.22.43-1.26-.77-2.23-1.86-2.32a12.84 12.84 0 0 0-3.49.2 2.6 2.6 0 0 0-2 1.46 1.75 1.75 0 0 0-1 2.15c.39 1.38.58 3.47 1.82 4.38 1.4 1 2.84.08 4.31-.2a3.18 3.18 0 0 0 2.7-2.54 4.15 4.15 0 0 0-.21-1.91zM391.81 349.33c-.32-1.4-.41-3.2-2-3.72-1.43-.47-3.11.31-4.37 1a1.65 1.65 0 0 0-.79 1 1.87 1.87 0 0 0-.7 1.38 12.51 12.51 0 0 0 .53 4.38 1.91 1.91 0 0 0 2.32 1.26c1.33-.29 3.06-.39 4.24-1.1 1.54-.96 1.1-2.74.77-4.2zM361.07 374.49c-1.74-2.89-5.49-2.62-7.36-.08v.07A1.89 1.89 0 0 0 353 377a4.78 4.78 0 0 1 .53 1.79 1.9 1.9 0 0 0 2.4 1.74c1.49-.39 3.62-.56 4.8-1.63a3.57 3.57 0 0 0 .34-4.41zM388.55 409.17c-1.1-6.1-3.59-21.2-13-19.1-9.56 2.15-5.62 16.09-4.17 22.39a1.63 1.63 0 0 0 .72 1.07 2.06 2.06 0 0 0 2.42 2c.56-.13 1.1-.28 1.66-.42a4.18 4.18 0 0 0 3.18-.87 83.43 83.43 0 0 0 7.89-2.75 1.94 1.94 0 0 0 1.3-2.32zM376.71 366.65c0-1.44-1.73-2-2.83-1.44l-3.44 1.7a1.45 1.45 0 0 0-.47.38 1.79 1.79 0 0 0-.74 2.55c.13.23.25.46.36.69a3.31 3.31 0 0 0 .24.58 9.52 9.52 0 0 1 .47 1.69 1.91 1.91 0 0 0 2.32 1.26 8.44 8.44 0 0 0 4.77-2.36c1.29-1.56.09-3.49-.68-5.05zM391.83 362.27a4.59 4.59 0 0 0-2.73-.61c-1 .09-2 .56-3 .69a1.92 1.92 0 0 0-1.82 1.92 1.72 1.72 0 0 0 .08.46 1.35 1.35 0 0 0-.08.65 8.79 8.79 0 0 0 .62 3 2.81 2.81 0 0 0 2.7 1.28c2-.06 4.12-.6 5.22-2.36a3.61 3.61 0 0 0-.99-5.03z"/><path class="cls-3" d="M393.46 314.77c-.32-2.94-1.26-5.55-1.22-8.57a1.89 1.89 0 0 0-2.49-1.6l-28.08 7.75c-7.5 2.08-15.09 4.34-21.08 9.53a2 2 0 0 0-.62 1 1.53 1.53 0 0 0-.25 1.28l2.2 10.77a1.9 1.9 0 0 0 2.49 1.6l33.71-12.79 7.66-2.9c2-.74 4.59-1.26 6.31-2.5a3.43 3.43 0 0 0 1.37-3.57z"/><path class="cls-15" d="M370.35 315.46l-2.93 1.25c-.33-.71-.66-1.42-1-2.14a1.18 1.18 0 1 0-2.24.76c.32.75.73 1.8 1 2.44-.84.42-2 .79-2.67 1.06-1.86.82-.62 2.7.54 2.33a19.48 19.48 0 0 0 3-1.2 17 17 0 0 1 .62 2.67c.22 1.54 2.67 1.5 2.45-.07a21.72 21.72 0 0 0-.81-3.57l2.74-1.17c1.42-.62.75-2.98-.7-2.36z"/><path class="cls-9" d="M395.52 317.43l5 45.45C402 377 402.8 391.51 407 405.14c.57 1.84 3.48 1.1 2.91-.75-4.33-14-5.06-28.91-6.64-43.4l-4.76-43.52c-.2-1.88-3.2-1.96-2.99-.04zM391.62 305.31c-.62-1.82-3.53-1.09-2.91.75a36.83 36.83 0 0 1 1.94 10c.1 1.92 3.1 2 3 .05a39.79 39.79 0 0 0-2.03-10.8z"/><path class="cls-10" d="M1216.73 392.34c-.07 13.82.26 16.34-1.44 30 23 5.89 84 22.6 93.56 24.52l2.21-7.65h.08l.76-2.68h-.11l.78-2.71h.11l.74-2.59-.08-.06 6.53-22.59a1.37 1.37 0 0 0-1.4-1.74 1.39 1.39 0 0 0-.83-.8 248.79 248.79 0 0 0-98-15.61 1.34 1.34 0 0 0-1.1.61 1.37 1.37 0 0 0-1.81 1.3zm2 22.36A363.33 363.33 0 0 1 1310 433l-.72 2.5c-12.19-4.87-24.91-7.39-37.79-9.23-13.3-3-26.91-5.54-40.49-6.48-1.14-.08-2.74-.26-4.44-.33a8.42 8.42 0 0 0-2.85-.08q-2.63-.57-5.25-1.21c.04-1.17.14-2.32.22-3.48z"/><path class="cls-3" d="M1322.59 408.38s8.39-21.85 11.84-35.73c4.05-16.28-2.26-25.7-4.74-27.23s-8.91-6.51-16.41.11-27.47 42.84-29 41.78-7.43-3.92-9.48-3.3-5.74 8.5-5.74 8.5 50.41 11.28 53.53 15.87z"/><path class="cls-4" d="M1307.12 322.89l.2-.11a2.69 2.69 0 0 1 1.4-.3c1.47-4.64 4.8-8.59 8.22-12.29a2.49 2.49 0 0 1 3.84.09 10.15 10.15 0 0 1 2.39-2.26c10.09-6.64 22.7 8.74 21.26 18.32-.94 6.27-7 14.93-13.27 15.43-3.14.25-1.17 7.6-2.29 7.15-7.63-3-9.81 1.07-14-2.05-1-.71 2-6.14 1.15-7-2.92-3.12-7.68-6.69-8-10.93v-.86a2.79 2.79 0 0 1-1.92-1.34 2.85 2.85 0 0 1 1.02-3.85z"/><path class="cls-14" d="M1314.89 300.21c0-.06.05-.13.09-.18a3.53 3.53 0 0 1 4.6-1.28 2.32 2.32 0 0 1 .89.35 11 11 0 0 1 3.51 3.47 6.51 6.51 0 0 0 9.72-.58c3-.61 5.22 1.8 6.1 4.78 3-1.69 7 1.56 7.2 5.45a2.6 2.6 0 0 1 1.27 2.32 7.61 7.61 0 0 1-.13 1.21 6.44 6.44 0 0 1 .16 5.36 3.07 3.07 0 0 1 .56 1l.31.92a2.85 2.85 0 0 1-.78 2.73 6.73 6.73 0 0 1-.6.59l-.2 1c1.25 2 .18 4.86-2 6.44a2.11 2.11 0 0 1-1.51.39 6.5 6.5 0 0 1-.38 2.06 2.79 2.79 0 0 1-3.87 2.52 2.55 2.55 0 0 1-1.8-.88c-1.81-2-3.32-4-3.55-6.68a2.76 2.76 0 0 1 1.45-2.44c2.69-1.45 5.88-5 2.58-7.41-1.16-.85-3.34-.38-3.62.85-.51 2.25-1.9 1.3-4.22.29-1.71-.74.69-1.52.25-2.7-.33-.9-3.44-2.21-4.63-3-2.91-1.84-10.62-3.51-12.26-6.68a3.06 3.06 0 0 1-.26-1.82l-.14-.21a5.7 5.7 0 0 1-.71-4.62 8.29 8.29 0 0 1 1.97-3.25z"/><path class="cls-4" d="M1313.28 345.53s-1.71-3.08-14.37 11.19l-20.67 27.79s2.91 2.61 6 2.81c2 .13 10.06-15.28 17.51-26 4-5.71 5.32-7.11 7.14-10.13 2.87-4.75 4.39-5.64 4.39-5.64"/><path class="cls-14" d="M1291.48 370.66a83.93 83.93 0 0 1 7-9.27 4.13 4.13 0 0 1 2.07-1.32.86.86 0 0 1 .11-.62c2.5-4.19 5.28-8.5 10.21-10a17.54 17.54 0 0 1 7.13-.45c1.71.2 12 3 11.26-1.26a1 1 0 0 1-.19-.46l-.08-.21a.93.93 0 0 1-.09-.47.92.92 0 0 1 1.15-1 .83.83 0 0 1 .63.72 3.12 3.12 0 0 1 .15.41.82.82 0 0 1 .22.4c.9 3.83-2.56 5.54-5.88 5.24-3.64-.33-7-1.85-10.73-1.62-6.18.37-9.33 4.84-12.23 9.7a3.37 3.37 0 0 1 .55.49c4 4.32-3.29 12.22-6.19 15a.94.94 0 0 1-1.3-1.35 28.92 28.92 0 0 0 3.79-4.4c1-1.43 3.16-4.38 2.71-6.16q.55-1.46-1-1.15-1.71-.69-2.3 1.44-.88 1.12-1.74 2.25c-1.26 1.66-2.48 3.35-3.68 5.06-.66.99-2.27.02-1.57-.97z"/><path class="cls-14" d="M1291.81 355.44a3.11 3.11 0 0 0 3.11 3.32 3.15 3.15 0 0 0 3.18-3 2.83 2.83 0 0 0-.22-1.17l.09-.05c4.79-4.52 9.19-8.39 16.19-8.25a.94.94 0 0 0 0-1.88c-7.51-.15-12.32 3.89-17.5 8.77a3 3 0 0 0-1.68-.46.89.89 0 0 0-.68.32 2.79 2.79 0 0 0-2.49 2.4zm1.84.27a1.06 1.06 0 0 1 1.42-.79.89.89 0 0 0 .65-.08 1.13 1.13 0 0 1-.51 2c-.68.16-1.63-.34-1.55-1.13z"/><path class="cls-16" d="M1300.43 398.76c1.11.32.84-.06 1.19-.81a2.77 2.77 0 0 1 1.07-1.13c.56-.35 1.2-.47 1.54-1s.36-1.36.8-2a.92.92 0 0 1 .88-.39.76.76 0 0 1 .27-.87c.83-.68.71-1.33 1.82-1.8s1.24.18 1.62-1.28c.14-.54-.05-1.05.27-1.58a3.08 3.08 0 0 1 .89-.82 2 2 0 0 0 1.44-1 4.94 4.94 0 0 1 .07-.94c1.12-1.79 3.35-2.23 3.91-4.44.3-1.17 2.1-.66 1.81.51a5.36 5.36 0 0 1-1.15 2.37c-.79.9-2.29 1.35-2.76 2.5-.25.62.12 1.22-.41 1.85s-1.39.35-1.78.73c-1 .94.1 2.69-1.24 3.62-.55.38-1.06.15-1.61.34-.79.27-.88.73-1.57 1.29a.93.93 0 0 1-.7.21.79.79 0 0 1-.15.66c-.52.72-.44 1.67-1 2.38s-1.87.88-2.22 1.69-.16 1.23-.91 1.64a3.46 3.46 0 0 1-2.57.09.94.94 0 0 1 .49-1.82z"/><path class="cls-4" d="M1262.14 389.83a31.87 31.87 0 0 0 4 1.5 3.21 3.21 0 0 0 2.51.11c1-.55 1.57-2 2.16-2.93l2.42-3.74a.78.78 0 0 0 .07-.2.85.85 0 0 0 .25-1.15 4.29 4.29 0 0 0-5.79-1.78c-2.55 1.37-4.52 4.49-6 6.89a1 1 0 0 0 .38 1.3z"/><path class="cls-3" d="M1258.77 386.34l-1 3.62s-26.28-2-29.37-2.13c0 0-8.18-28.48-7-32.76 0 0 9-1.86 11.94-1.87a7.27 7.27 0 0 1 3.42 6.23c.16 4.54 1.23 21.94 1.58 23.65s7.38.29 9.7 1.62 10.73 1.64 10.73 1.64z"/><path class="cls-16" d="M1236.9 384.04l-4.24.75-2.76-.79-6.19-25.78 1.86-1.97 7.08-.24 1.51 1.54 2.74 26.49z"/><path class="cls-10" d="M1207.93 389a228.7 228.7 0 0 1 121.91 21.15c1.63.78.16 3.17-1.46 2.4a226 226 0 0 0-120.47-20.75c-1.79.2-1.75-2.63.02-2.8zM1208.54 361.27h-2c-2-3.37-3-8.1-4.93-11.07-4.62-7-11.7-8.2-19.53-8.68-6-.36-11-3.16-11.74-9.63-.4-3.58 1.67-6.38 3.46-9.28a31.16 31.16 0 0 0 4.72-11.18c1.33-7.81-1.07-17.56-8.33-21.82-5.84-3.43-12.9-2.29-18.83.31-.92-2.1-1.48-4.45-2.33-6.5a20.77 20.77 0 0 0-6.31-8.65c-6-4.69-14-5.44-21.31-5-18.68 1.25-37.41 4.25-56 6.62a80.75 80.75 0 0 0-20.07-7.4c-16.82-3.69-33.63-.85-47.38 9.7-7.8 6-14.67 11.23-24.43 13.56-8.3 2-17.19 3-24.46 7.82-4.75 3.18-9.8 9.1-8.07 15.3 1.84 6.57 9 5.65 13.54 8.95 4 2.88 2 8-1.22 10.49a24.55 24.55 0 0 1-7.07 3.4c-2.57.94-5.7 2-6.58 4.92-1.81 6 6.54 8.52 10.73 9.5a54.87 54.87 0 0 0 26.08-.28c9.24-2.38 58.21 3.37 65.26 6.3 8.91 3.7 20.56 5.46 30.19 5.1 9.9-.38 58.94 10.81 62.08 13.75 7.5 7 17.69 9.46 27.69 9.92 10.93.51 22.12-.73 32.87-2.59 10.09-1.74 18.76-6.51 20.21-17.41.37-3.3-3.26-6.15-6.24-6.15z"/><path class="cls-3" d="M1242.78 343.36c5.18-14.33 8.22-29.11.21-43s-21.4-20.84-36.41-24.68c-3.73-1-7.51-1.8-11.29-2.51-2.84-.53-5.77-.94-8.34.72-5.07 3.29-4.83 10.06-3.33 15.15 1.08 3.7 2.32 7.11 2.54 11a64.31 64.31 0 0 1-.46 13.27c-.49 3.12-1.68 6.14-.41 9.24a12 12 0 0 0 5.53 5.65c8.12 4.55 17.46 4.5 26.39 5.86a50.31 50.31 0 0 1 14.29 4.2 8.46 8.46 0 0 0 .94.46 17.88 17.88 0 0 1 3.44 2.23l.2.29.08.11a3.35 3.35 0 0 0 .91.82c1 1.21 1.23 3 2.69 3.67a1.9 1.9 0 0 0 2.25-.27 2.23 2.23 0 0 0 .65-2 2.06 2.06 0 0 0 .12-.21z"/><path class="cls-16" d="M1235.15 298.59a47.09 47.09 0 0 0-10.65-3.47c-1.65-.31-3.31-.4-5-.67a9.42 9.42 0 0 1-4.23-1.49c-.64-.46-1.16-1.13-1.84-1.55-2.55-1.58-6.28-1.73-9.2-2.21-3.32-.56-6.58.24-9.78 1.06a1.12 1.12 0 0 0 .57 2.16 22.33 22.33 0 0 1 11.64-.29c1.18.27 1.6.18 2.78.39 3.19.57 3.29 1.73 5.43 3s5.17 1.14 7.64 1.52a44.25 44.25 0 0 1 11.49 3.46c1.31.59 2.46-1.33 1.15-1.91zM1243.54 319.34c-4.88-6.71-12.8-8-20.27-10.25-4.66-1.42-8.75-4.19-13.51-5.27-4.56-1-9.3-.91-13.94-.79a1.12 1.12 0 0 0 0 2.23 59 59 0 0 1 12.69.58c4.17.8 7.68 3.09 11.61 4.55 7.39 2.75 16.46 3.14 21.49 10.05.83 1.15 2.78.06 1.93-1.1zM1220.76 322.45a40.78 40.78 0 0 0-21.12-4.37c-1.43.09-1.44 2.32 0 2.23a38.45 38.45 0 0 1 20 4.05c1.25.64 2.36-1.27 1.12-1.91z"/><path class="cls-3" d="M1127.43 290.7c-.81-2.32-4.61-2.91-6.49-1.57a4.07 4.07 0 0 0-1.27 1.71 2.7 2.7 0 0 0-.71 1 .81.81 0 0 0-.32.39c-1.22 3-9.12 21.66.33 19.9 3.1-.58 4.2-3.74 5-6.38.94-3.06 1.74-6.17 2.54-9.27.4-1.55 1.49-4.1.92-5.78zm-5 14.59c-.85 2.7-.74 5.09-4.08 5s-2.54-2.22-2.06-4.82a53.74 53.74 0 0 1 1.62-6.42c1.37 1.21 4.36 2.73 5.57 2.6-.35 1.22-.69 2.44-1.07 3.65zM1094.22 340.24c-1.59-2.49-3.4-5.56-5.57-7.57-2.87-2.66-7 .2-9.72 2.82a1 1 0 0 0-.24.07 7.31 7.31 0 0 0-1.71 1.25.92.92 0 0 0-.27.52.86.86 0 0 0-.06 1.07 1 1 0 0 0 .06.61c2.18 5 4.15 10.21 7 14.9a.94.94 0 0 0 .67.46 1.81 1.81 0 0 0 .81.58c1.65.52 4.61-2 5.74-2.73 1.65-1 5.88-2.81 6.42-5s-2.1-5.36-3.13-6.98zM1083.43 328.17a10.83 10.83 0 0 0-1.26-1.91c-1.35-1.29-2.93 0-4.07.89-1.37 1-3.62 2.12-4.45 3.67s.67 2.89 1.73 4a.89.89 0 0 0 1.14.17c1.11-.11 2.28-1.2 3.08-1.74 1.23-.84 3.61-1.9 4.13-3.42a1.81 1.81 0 0 0-.3-1.66z"/><path class="cls-10" d="M1091.57 337.6a59.08 59.08 0 0 0-8.41 4.2.82.82 0 0 0 .82 1.41 56.49 56.49 0 0 1 8-4c1.02-.42.56-2-.41-1.61zM1092.28 342.07l-6.3 3.75a.82.82 0 0 0 .82 1.41l6.3-3.75a.82.82 0 0 0-.82-1.41z"/><path class="cls-2" d="M1125.29 326.82a1.44 1.44 0 0 0-1.37 1.31c3.36 15.88 5.88 28.81 8.89 42.67a2 2 0 0 0 .63 1.23 2.08 2.08 0 0 0 1.63.13c9.89-1.93 22.29-4.93 32-7.76.61-.18.57-.22 1-.72a2.69 2.69 0 0 0 .4-2.2c-3.32-15.65-5.31-23.54-8.18-35.34-.52-2.13-.31-4.71-2.26-5.72-1.65-.85-1.14-1-2.95-.62z"/><path class="cls-3" d="M1154.11 321.05a1.18 1.18 0 0 1 1.5.49c3.49 13.52 6.5 24.45 9.49 36.29a1.76 1.76 0 0 1 0 1.19 1.67 1.67 0 0 1-1.15.72c-8 2.23-18.29 4.58-26.48 6-.52.09-.51 0-1-.19a2.36 2.36 0 0 1-1.12-1.55c-3.44-13.33-4.94-20.17-7.26-30.36-.42-1.84-1.54-3.75-.48-5.26.89-1.28.45-1.24 1.94-1.59z"/><path class="cls-2" d="M1137.07 322.15a.84.84 0 0 0 .68-1 6 6 0 0 1 .06-2.44 3.46 3.46 0 0 1 1.56-1.91 2.55 2.55 0 0 1 2.53.08 4.59 4.59 0 0 1 1.57 2.12 10.34 10.34 0 0 0 .41 1.22c.14.23 1.52-.31 1.75-.35a15 15 0 0 0 3.5-1 1.08 1.08 0 0 1 1.1 0 1.47 1.47 0 0 1 .38.7 31.21 31.21 0 0 1 .8 3.09.8.8 0 0 1 0 .49.57.57 0 0 1-.43.26l-17.19 4.06a.84.84 0 0 1-1-.62l-.79-3.19c0-.18-.08-.41 0-.53a.4.4 0 0 1 .23-.1c1.77-.29 3.18-.57 4.84-.88z"/><path class="cls-14" d="M1153.88 351.32c-1-.82-2.05-1.61-3.1-2.39.51-.92 1.05-1.82 1.63-2.71.28-.43-.42-.8-.7-.38-.56.85-1.08 1.72-1.57 2.61q-2.73-2-5.58-3.88a4.7 4.7 0 0 0 2.43-5.71c-1-3.07-3.65-2.55-6-1.36a.32.32 0 0 0-.19.36c-.27-.25-.78.13-.59.54a31.63 31.63 0 0 1 2.86 10 .36.36 0 0 0 0 .32l.14.43a.4.4 0 0 0 .78-.14 32.83 32.83 0 0 0-3-10.94.41.41 0 0 0 .47.07 6.68 6.68 0 0 1 2-.76 2.09 2.09 0 0 1 2.52 1 3 3 0 0 1 .48 1.57 4 4 0 0 1-2.77 4.19.4.4 0 0 0-.07.73q3.17 2 6.19 4.29-1 1.9-1.87 3.89c-.2.47.5.85.7.37q.82-1.94 1.82-3.79c1 .75 2 1.5 2.95 2.28.32.31.86-.27.47-.59z"/><path class="cls-3" d="M1107.1 306.21a5.59 5.59 0 0 0-9.29 2 4.18 4.18 0 0 0-.21.64 4 4 0 0 0-.09 2.11 4 4 0 0 0 .63 2 5.45 5.45 0 0 0 3 2.38 5.07 5.07 0 0 0 4.83-.23 5.71 5.71 0 0 0 2.82-4.85 5.77 5.77 0 0 0-1.69-4.05z"/><path class="cls-6" d="M1105 308.41a17.12 17.12 0 0 0-4.36 4c-.32.42.39.82.7.41a16 16 0 0 1 4.06-3.71c.42-.28.01-.99-.4-.7z"/><path class="cls-3" d="M968 311.48a5.59 5.59 0 0 0-9.29 2 4.18 4.18 0 0 0-.21.64 4 4 0 0 0-.09 2.11 4 4 0 0 0 .63 2 5.45 5.45 0 0 0 3 2.38 5.07 5.07 0 0 0 4.83-.23 5.71 5.71 0 0 0 2.82-4.85 5.77 5.77 0 0 0-1.69-4.05z"/><path class="cls-2" d="M965.91 313.68a17.12 17.12 0 0 0-4.36 4c-.32.42.39.82.7.41a16 16 0 0 1 4.06-3.71c.46-.28.05-.98-.4-.7z"/><path class="cls-3" d="M1109.85 287.5a5.89 5.89 0 0 0-2.57-3.36 6 6 0 0 0-2.26-.76 3.68 3.68 0 0 0-1.57 0 3.55 3.55 0 0 0-1 .21 7.38 7.38 0 0 0-1.63.63 6.44 6.44 0 0 0-1.38 1.07c.19-.18-.71.82-.91 1.2a8.17 8.17 0 0 0-.59 1.41q-.07.39-.11.78a4 4 0 0 0 .09 2.11 5.6 5.6 0 0 0 1.45 2.42 7.69 7.69 0 0 0 1.27 1 9.1 9.1 0 0 0 1.49.65l.36.09a7 7 0 0 0 1.65.18 6.33 6.33 0 0 0 4.06-1.68 5.92 5.92 0 0 0 1.65-5.95z"/><path class="cls-6" d="M1107.6 292.15c-2.28-1.48-5.56-2.9-6.8-5.45-.23-.47-.93-.06-.7.41 1.32 2.7 4.69 4.18 7.09 5.74.44.29.81-.41.41-.7z"/><path class="cls-3" d="M1190.95 357.82a5.89 5.89 0 0 0-2.57-3.36 6 6 0 0 0-2.26-.76 3.68 3.68 0 0 0-1.57 0 3.55 3.55 0 0 0-1 .21 7.38 7.38 0 0 0-1.63.63 6.44 6.44 0 0 0-1.38 1.07c.19-.18-.71.82-.91 1.2a8.17 8.17 0 0 0-.59 1.41q-.07.39-.11.78a4 4 0 0 0 .09 2.11 5.6 5.6 0 0 0 1.45 2.42 7.69 7.69 0 0 0 1.27 1 9.1 9.1 0 0 0 1.49.65l.36.09a7 7 0 0 0 1.65.18 6.33 6.33 0 0 0 4.06-1.68 5.92 5.92 0 0 0 1.65-5.95z"/><path class="cls-6" d="M1188.7 362.47c-2.28-1.48-5.56-2.9-6.8-5.45-.23-.47-.93-.06-.7.41 1.32 2.7 4.69 4.18 7.09 5.74.44.29.85-.41.41-.7z"/><path class="cls-3" d="M1006.61 304c-5-2.66-7.49 2.58-8.55 7.45a10.29 10.29 0 0 0-5.1-2.08c-3.16-.34-7 1-8.42 4-1.57 3.4 1.22 5.64 3.58 7.62 4.36 3.67 8.85 7.19 13.42 10.6a2.09 2.09 0 0 0 1.58.45c1.19 1.71 4.24.56 4.53-1.65.72-5.59 1.74-11.24 2.16-16.86.25-3.22.04-7.84-3.2-9.53zM717.1 346.66l-12.66.69c-3.21.18-2.94 5.17.27 5l12.66-.69c3.22-.18 2.95-5.18-.27-5zM737.52 325.28a68.31 68.31 0 0 1-11-11.24c-2-2.53-6.14.2-4.17 2.76a73.94 73.94 0 0 0 11.83 12.2c2.49 2 5.82-1.68 3.34-3.72zM762.85 300.49l.51 9.21c.18 3.21 5.17 2.94 5-.27l-.51-9.21c-.19-3.22-5.18-2.95-5 .27zM803 306.43a42.2 42.2 0 0 0-5.67 12.24c-.89 3.1 4 4.14 4.89 1.06a38.17 38.17 0 0 1 5.24-11c1.79-2.67-2.68-4.92-4.46-2.3zM834.14 327.66a42.2 42.2 0 0 0-11.75 6.62c-2.53 2 .83 5.7 3.35 3.72a38.17 38.17 0 0 1 10.69-5.88c3.01-1.12.7-5.55-2.29-4.46z"/><path class="cls-10" d="M1338.19 219.3c-1.52-3.35-5.6-5.3-9.35-5a12.29 12.29 0 0 0-3.76-4.57c-.67-8.17-7.15-15.75-15.59-15.12a28.72 28.72 0 0 0-17-14.81 18.59 18.59 0 0 0-8-.8 17.44 17.44 0 0 0-19.07 4.92c-3.72 4.17-5.58 9.6-7.11 14.88-.57 2-1.14 4-1.63 6.12-5.07-1.64-10.8-.92-14.77 3.09a12.91 12.91 0 0 0 0 18.47c4.6 4.32 11.18 5.1 17.09 3.4 9.39 13.49 33.29 13.35 45.48 1.25l.43-.1a20.8 20.8 0 0 0 10.63 2.25 23.67 23.67 0 0 0 5.21 1.76 12.92 12.92 0 0 0 2.31 2.4c7.72 6.2 18 1.34 21-7.11 1.7-4.52-1.61-9.64-5.87-11.03zm-46.86-7.14c.37.09 2.5.57.26.5a3.09 3.09 0 0 1-.25-.5zm-37.22.39c-1.5.31-1-1.21 0 0z"/><path class="cls-3" d="M1358.56 84a4.65 4.65 0 0 0-4.49-2.42 5.9 5.9 0 0 0-1.8-2.19c-.32-3.92-3.43-7.55-7.47-7.25a13.77 13.77 0 0 0-8.14-7.1 8.92 8.92 0 0 0-3.84-.38 8.36 8.36 0 0 0-9.15 2.36 17.9 17.9 0 0 0-3.41 7.13c-.27 1-.54 1.94-.78 2.94a6.85 6.85 0 0 0-7.08 1.48 6.19 6.19 0 0 0 0 8.86 8.43 8.43 0 0 0 8.2 1.63c4.5 6.47 16 6.4 21.81.6l.21-.05a10 10 0 0 0 5.1 1.08 11.35 11.35 0 0 0 2.5.85 6.2 6.2 0 0 0 1.11 1.15c3.7 3 8.61.64 10.08-3.41.78-2.12-.81-4.58-2.85-5.28zm-22.47-3.42c.18 0 1.2.27.12.24a1.48 1.48 0 0 1-.12-.21zm-17.85.18c-.72.15-.49-.58 0 0zM131.68 305.14a6.44 6.44 0 0 0-4 .3 5.13 5.13 0 0 0-3.72.93 16.26 16.26 0 0 0-2.43 2.24 10.7 10.7 0 0 0-11.06.35 20.23 20.23 0 0 0-6.33 1.85 17.41 17.41 0 0 0-7.42-8.6 18.37 18.37 0 0 0-4.86-2c0 10-.26 43.83-.2 54.43a11.43 11.43 0 0 0 7.08-7.15c.08-.22.14-.45.21-.67a14.14 14.14 0 0 0 2.26-2 13.63 13.63 0 0 0 12.8-.59c5.46-3.13 10.19-10 11.15-16.8q.45-.35.87-.73a11.25 11.25 0 0 0 5.37.36c12.09-2.06 12.11-19.24.28-21.92z"/><path class="cls-10" d="M146.94 67.66c-.41-2.88-4-4.41-6.57-3.78a6.73 6.73 0 0 0-4.12-3 5.08 5.08 0 0 0-1.72-.15 6.32 6.32 0 0 0-5.79-3.3A10 10 0 0 0 122 54a10.61 10.61 0 0 0-10.94 8.11 4.92 4.92 0 0 0-1.45.2A8.76 8.76 0 0 0 104 73.88a5.83 5.83 0 0 0 4.13 3.65 7.24 7.24 0 0 0 5.16-.71 8 8 0 0 0 2.14-1.72 8.64 8.64 0 0 0 11.17.34 10.87 10.87 0 0 0 7.85 1 7.86 7.86 0 0 0 3.94 1.2c5.84.24 9.32-4.56 8.55-9.98z"/><path class="cls-3" d="M1023.09 234.59a54.87 54.87 0 0 0-22.52 15.65 41 41 0 0 0-18.14-20.43c-3.2-1.79-6.08 3.13-2.87 4.92a35.29 35.29 0 0 1 17.24 22.1c.68 2.53 3.84 2.6 5.2.68a48.23 48.23 0 0 1 22.59-17.43c3.41-1.28 1.94-6.78-1.5-5.49zM895.59 309.07a17.06 17.06 0 0 0-3.73 12.38 21.92 21.92 0 0 0-13.74-1.21c-1.75.4-1 3.1.74 2.7a19 19 0 0 1 14.14 2.24 1.41 1.41 0 0 0 2.05-1.58 14 14 0 0 1 2.52-12.6c1.1-1.35-.86-3.34-1.98-1.93zM929.86 272.36a25.57 25.57 0 0 0-10.7 16.17 32.86 32.86 0 0 0-19.2-7.66c-2.69-.18-2.79 4-.1 4.19a28.42 28.42 0 0 1 19.38 9.33 2.12 2.12 0 0 0 3.63-1.38 21.05 21.05 0 0 1 9-17c2.13-1.49.2-5.2-2.01-3.65z"/><path class="cls-17" d="M1208 183.26a25.16 25.16 0 0 0-20.21 8.47 51.05 51.05 0 0 0-11.26-16.66c-2.28-2.25-6 1-3.75 3.31a46.5 46.5 0 0 1 11.87 19c.61 1.88 3.33 2.88 4.53.87a20.08 20.08 0 0 1 18.57-10c3.25.15 3.48-4.84.25-4.99z"/><path class="cls-14" d="M163.6 390a1.82 1.82 0 0 1 0-2.32 3.67 3.67 0 0 1-.2-.58 1.85 1.85 0 0 1 1-2 4 4 0 0 1 .77-.25c-.19-.17-.38-.35-.55-.48a3.63 3.63 0 0 1-.7.05 1.81 1.81 0 0 1-1.34-2.82 1.86 1.86 0 0 1 2.29-2.52c1.62.68 2.15-.4 3.56-.72.71-.16 2.85 0 2.69 1.12a1.85 1.85 0 0 1 2-1.66 5.1 5.1 0 0 0 3-.07c2.21-.77 3.82 2.54 1.59 3.32a9 9 0 0 1-3.76.58c-1.13 1.08-3.14.77-4.84.36l-1.31.52a5.42 5.42 0 0 1 1.19 3.29 3.43 3.43 0 0 1-.66 1.75 3.22 3.22 0 0 1-.58 2.13 5.06 5.06 0 0 1-.54 2.44 1.86 1.86 0 0 1-3.54-.31l-.18-.69a1.61 1.61 0 0 1 .11-1.14z"/><path class="cls-4" d="M177.7 381.1a63.61 63.61 0 0 1 .29 6.81 7.28 7.28 0 0 1-2.84 5c-1.7 1.34-3.89 1.08-4.15 2.32a29.68 29.68 0 0 0-5.8 1.67s-.55-2.55.25-3.58c0 0 1.94.34 2.31-3.6a3 3 0 0 0 .58-2.13 4.65 4.65 0 0 0-.54-5l1.31-.52s3.39 1.09 4.84-.36a10.25 10.25 0 0 0 3.75-.61z"/><path class="cls-3" d="M136.38 148.26c2.11-6.54 8.5-2.65 12.18.84.85-4.86 6.37-8 10.88-4.35 6.43 5.17.2 16.51-3.7 21.28a1 1 0 0 1-.21.2 4.83 4.83 0 0 1-.95 1.3.93.93 0 0 1-1.05.21 1.27 1.27 0 0 1-.67-.21c-5.42-3.65-19.27-10.61-16.48-19.27z"/><path class="cls-9" d="M181.82 398.46a36.1 36.1 0 0 0 .73-18.39c-.14-.62.8-1 .94-.35a37 37 0 0 1-.68 18.92c-.19.61-1.18.43-.99-.18zM175.25 392.53a12.14 12.14 0 0 0 2.28-8.28c-.06-.64.93-.82 1-.18a13.24 13.24 0 0 1-2.44 9 .5.5 0 0 1-.84-.54zM184.52 404.73a4.94 4.94 0 0 1 1.77 1.12.49.49 0 0 1 .15.32 11.34 11.34 0 0 0 2.22 1.5c.57.29.14 1.2-.43.9a12.42 12.42 0 0 1-2.56-1.73.47.47 0 0 1-.17-.33 4.26 4.26 0 0 0-1.41-.87c-.61-.23-.18-1.13.43-.91zM180.76 401.62a4.63 4.63 0 0 1 1.4 1.2c.4.51-.42 1.08-.82.57a3.37 3.37 0 0 0-1-.87c-.57-.31-.14-1.22.42-.9zM181.56 430.21c5.4-.83 12.27-1.29 15.16 4.44 1.22 2.41 1.4 5.23 1.67 7.87q.64 6.37 1.27 12.74a.5.5 0 0 1-1 .08l-.93-9.31a54.64 54.64 0 0 0-1.12-8.81c-1.93-7.12-9-6.94-15-6-.61.09-.69-.91-.05-1.01z"/><path class="cls-9" d="M175.73 425.1a30.92 30.92 0 0 0 7.83-.12.44.44 0 0 1 .29.06c1.82-.11 3.93-.46 5.62.32s2.86 2.64 3.79 4.34c.31.56-.51 1.14-.82.57-.87-1.6-1.8-3.37-3.59-4.07-1.57-.61-3.55-.22-5.2-.15a.49.49 0 0 1-.24-.05 32 32 0 0 1-7.87.08c-.64-.08-.45-1.08.19-.98z"/><g><path class="cls-10" d="M338.72 419.22A874.51 874.51 0 0 1 317 307.75a2.82 2.82 0 0 0-3.11-2.46q-18 3.25-35.63 7.83a129.46 129.46 0 0 0-16.61 4.59q-12.46 3.67-24.75 8a2.48 2.48 0 0 0-1.48 3.41 2.39 2.39 0 0 0-1 1.46c-2.92 10.48-.23 21 3.17 31.15 2.28 12.63 7.19 24.84 12.26 36.92l9.69 29.62c1.4 4.29 2.28 13.56 6.92 15.61 2.45 1.08 5.32-.18 7.7-.78q6-1.54 12-3.21 25.94-7.24 51.13-16.9c1.49-.62 1.81-2.34 1.43-3.77zm-36.57-6.58c.14.31.29.63.45.93l-1.1.3q.36-.6.66-1.22z"/><path class="cls-18" d="M260.4 349.61c-.2-1.14-.23-2.93-1.16-3.74s-2.53-.26-3.64.06a24.43 24.43 0 0 0-4.82 2 1.5 1.5 0 0 0-.46 2.23 33.7 33.7 0 0 0 2.52 7.61 1.42 1.42 0 0 0 2.47.16c2 0 5.27-1.59 5.62-3.54.26-1.51-.28-3.34-.53-4.78zM305.11 361.06c-.2-1.14-.23-2.93-1.16-3.74s-2.53-.26-3.64.06a24.43 24.43 0 0 0-4.82 2 1.5 1.5 0 0 0-.46 2.23 33.7 33.7 0 0 0 2.52 7.61 1.42 1.42 0 0 0 2.47.16c2 0 5.27-1.59 5.62-3.54.26-1.51-.27-3.33-.53-4.78zM300.48 338.77a1.41 1.41 0 0 0-1.55-1.23q-12.49 2.11-25.07 3.61a1.4 1.4 0 0 0-.4.11 1.28 1.28 0 0 0-.27 0 1.42 1.42 0 0 0-1 2.1v.13a51.13 51.13 0 0 0 1.1 6.47c.16.67.77 1.44 1.55 1.23a75.5 75.5 0 0 1 11.77-2.05c3.79-.42 8.27-.32 11.85-1.74 3.9-1.57 2.46-4.83 2.02-8.63zM257.52 373.29a1.45 1.45 0 0 1 .9-1.79q12.19-3.53 24.19-7.65a1.39 1.39 0 0 1 .41-.07 1.31 1.31 0 0 1 .24-.14 1.38 1.38 0 0 1 1.77 1.47s0 .07.06.12a51 51 0 0 1 1.67 6.34c.13.68-.1 1.64-.9 1.79a75.78 75.78 0 0 0-11.51 3.27c-3.6 1.27-7.62 3.31-11.45 3.58-4.19.3-4.22-3.28-5.38-6.92zM273 393.42c-.2-1.14-.23-2.93-1.16-3.74s-2.53-.26-3.64.06a24.43 24.43 0 0 0-4.82 2 1.5 1.5 0 0 0-.46 2.23 33.7 33.7 0 0 0 2.52 7.61 1.42 1.42 0 0 0 2.47.16c2 0 5.27-1.59 5.62-3.54.28-1.51-.26-3.33-.53-4.78zM317.73 404.88c-.2-1.14-.23-2.93-1.16-3.74s-2.53-.26-3.64.06a24.43 24.43 0 0 0-4.82 2 1.5 1.5 0 0 0-.46 2.23 33.7 33.7 0 0 0 2.52 7.61 1.42 1.42 0 0 0 2.47.16c2 0 5.27-1.59 5.62-3.54.26-1.51-.26-3.34-.53-4.78zM313.09 382.58a1.41 1.41 0 0 0-1.55-1.23Q299 383.46 286.47 385a1.4 1.4 0 0 0-.4.11 1.28 1.28 0 0 0-.27 0 1.42 1.42 0 0 0-1 2.1v.13a51.13 51.13 0 0 0 1.1 6.47c.16.67.77 1.44 1.55 1.23a75.5 75.5 0 0 1 11.77-2.05c3.79-.42 8.27-.32 11.85-1.74 3.93-1.61 2.47-4.87 2.02-8.67zM270.14 417.1a1.45 1.45 0 0 1 .9-1.79q12.19-3.53 24.19-7.65a1.39 1.39 0 0 1 .41-.07 1.31 1.31 0 0 1 .24-.14 1.38 1.38 0 0 1 1.77 1.47s0 .07.06.12a51 51 0 0 1 1.67 6.34c.13.68-.1 1.64-.9 1.79a75.78 75.78 0 0 0-11.48 3.27c-3.6 1.27-7.62 3.31-11.45 3.58-4.22.31-4.26-3.28-5.41-6.92z"/><path class="cls-3" d="M241.78 329.55s73.15-23.76 90-23.78c0 0-58.41-27.72-60.71-29.23s-14.11.78-26.79 22.56a232.79 232.79 0 0 0-18.93 41.3z"/><path class="cls-9" d="M328.77 301.38c-7.14-6.08-17.68-8.76-26.13-12.34l-33.48-14.16c-2.48-1-3.64 3.06-1.19 4.1L296.49 291l13.64 5.77c5.09 2.15 11.36 3.89 15.65 7.54 2.04 1.78 5.06-1.17 2.99-2.93zM313.66 310q9.46 55.68 21.92 110.74c.61 2.68 4.65 1.67 4-1q-12.46-55-21.92-110.74c-.42-2.76-4.46-1.74-4 1z"/></g><path class="cls-3" d="M488.09 282.7c-3.05-10.07-13.69-14.88-23.44-11.63a1.38 1.38 0 0 0-.69.49 16.83 16.83 0 0 0-7.77 21.16c3.46 8.47 13.52 13.79 22.48 12 10.33-2.11 12.12-13.1 9.42-22.02zm-12.23 19.56a18.24 18.24 0 0 1-16.75-9.77 14.07 14.07 0 0 1 6.83-18.83 1.46 1.46 0 0 0 .23-.13c8.77-2.49 17.62 2.24 19.63 11.41 1.75 8.06-.42 16.91-9.95 17.32z"/><path class="cls-3" d="M480.54 290.56a15 15 0 0 0-7-3.42l-.84-7.64c-.19-1.76-3-1.78-2.78 0l1 8.64a1.42 1.42 0 0 0 .81 1.15 1.17 1.17 0 0 0 .79.45 12.28 12.28 0 0 1 6.09 2.77c1.32 1.18 3.29-.78 1.93-1.95zM211 143.49a1.45 1.45 0 0 0-1.42-1.42c-2.19-.15-4.41-.43-6.6-.45-1.11 0-3-.71-3.45 2.41-.19 1.29-.34 3 1 3.76s3.74.65 5.3.83c1.29.15 3.28.81 4.37-.22s.69-3.58.8-4.91zM206.06 150.34c-1.76-.08-10.15-.32-10.4-.29a1.54 1.54 0 0 0-1.44 1.67c0 4.63-.11 13.78 0 15.79 0 .75-.67 4.62 2.45 6.05s14.47 1 14.63-.15c.79-5.34 2.39-17.62 2.32-18.37 1-5.11-6.17-4.64-7.56-4.7z"/><path class="cls-2" d="M209.34 157h-3.82a2.5 2.5 0 0 0 0 5h3.82a2.5 2.5 0 0 0 0-5zM207.56 164.34a4.64 4.64 0 0 0-2.43-.11 2.5 2.5 0 0 0-1.49 1.15 2.55 2.55 0 0 0-.25 1.93 2.5 2.5 0 0 0 2.61 1.79l.23.06a2.51 2.51 0 0 0 3.08-1.75 2.57 2.57 0 0 0-1.75-3.07z"/><path class="cls-3" d="M387.43 277.74a41.74 41.74 0 0 0-4.13 9.48c-.55 1.86 2.35 2.65 2.89.8a38.43 38.43 0 0 1 3.82-8.76 1.5 1.5 0 0 0-2.58-1.52zM402.47 286.64l-8.63 2.74c-1.83.58-1.05 3.48.8 2.89l8.63-2.74c1.83-.58 1.05-3.48-.8-2.89zM377.76 287.12l-1.65-13.5c-.23-1.89-3.23-1.92-3 0l1.65 13.5c.24 1.88 3.24 1.88 3 0z"/><path class="cls-9" d="M894.25 322.72a24.31 24.31 0 0 0-15.82-2.3c-1.9.35-1.09 3.24.8 2.89a20.89 20.89 0 0 1 13.51 2c1.71.88 3.26-1.71 1.51-2.59zM921.79 292.49a36.77 36.77 0 0 0-22.53-10.54c-1.92-.19-1.91 2.81 0 3a33.43 33.43 0 0 1 20.41 9.66c1.33 1.39 3.5-.76 2.12-2.12zM1000.63 256.43c-2.46-11.64-10.06-18.93-19.29-25.79-2.07-1.54-4.06 1.93-2 3.45 8.42 6.26 15.2 12.77 17.45 23.4.51 2.51 4.37 1.46 3.84-1.06zM1188.84 196.69c-2.57-7.57-7.39-16.6-13.86-21.53-2-1.56-4 1.91-2 3.45 2.92 2.23 4.81 5.61 6.75 8.67a48.72 48.72 0 0 1 5.28 10.47c.8 2.42 4.66 1.38 3.83-1.06zM1264.59 183.38a54.25 54.25 0 0 0-8.49 20.07c-8.93-2.25-21.61 5-18 16.85.63 2.05 2.58 7 10.56 10.14 1.8.71 2.63-2.3.8-2.89-3.89-1.26-7-3.28-8.54-8.28-3.37-10.17 7.4-15.61 15.68-13.59a1.4 1.4 0 0 0 1.45-1.1 50.48 50.48 0 0 1 8-20.19c1.1-1.63-.41-2.63-1.46-1.01zM1260 229.15a1.51 1.51 0 0 0-1.85-1 5.64 5.64 0 0 1-2.61.42 1.5 1.5 0 0 0 0 3 7.69 7.69 0 0 0 3.4-.53 1.55 1.55 0 0 0 1.06-1.89zM1332.07 93.13a18.82 18.82 0 0 1-6.72-1.71c-1.42-.68-2.87-2.41-4.28-2.81-1.67-.48-3.41 0-5.11-.76-4.36-1.92-4-6.21-1.07-9.31.89-.93-.52-2.35-1.41-1.41-3.72 3.91-4.5 9.47 1 12.3 2.74 1.42 5.57 1.16 8.25 2.81a20.8 20.8 0 0 0 9.37 2.9c1.26.09 1.25-1.91-.03-2.01zM1229.39 386.38c-2.61-9.77-6.44-20-7.42-30.08-.12-1.27-2.12-1.28-2 0 1 10.32 4.82 20.61 7.49 30.61a1 1 0 0 0 1.93-.53zM1274.07 383.82c-1-2.73-4.07-3-6.51-2.11s-6.13 3.44-6.68 6.12c-.26 1.26 1.67 1.79 1.93.53.47-2.28 8-7.76 9.33-4 .43 1.19 2.37.64 1.93-.54zM1288.83 368.15c-3.81 5.09-8.43 9.55-11.33 15.27-.58 1.15 1.14 2.16 1.73 1 2.9-5.71 7.52-10.19 11.33-15.27.77-1.03-.96-2.02-1.73-1zM1292.6 363.75a1 1 0 0 0 0 2 1 1 0 0 0 0-2zM1296.16 359.52a1 1 0 0 0 0 2 1 1 0 0 0 0-2zM1308 323.61a1 1 0 0 0 .78-.53 1 1 0 0 0 1.85-.55c.21-4 3-7 5.56-9.73.88-.94-.53-2.35-1.41-1.41-2.83 3-5.59 6.24-6.08 10.43a.8.8 0 0 0-.69-.21c-3.56.43-4.61 6.45-1 7.26a16.46 16.46 0 0 0 4.48 6.6c1 .85 2.38-.56 1.41-1.41a14.47 14.47 0 0 1-4.11-6.06 2.67 2.67 0 0 0-1.25-1c-1.54-.15-.82-3.24.46-3.39zM1317.08 339.74c-.39-1.22-2.32-.7-1.93.53a5.7 5.7 0 0 1-1.73 6.14c-1 .85.45 2.26 1.41 1.41a7.67 7.67 0 0 0 2.25-8.08zM1208.75 389a1 1 0 0 0-1.41 0 1.84 1.84 0 0 0-.34 2.29 1 1 0 0 0 1.77-.89 1 1 0 0 0-.02-1.4zM1218.14 391.6c-.1-1.27-2.11-1.28-2 0a142.39 142.39 0 0 1-.7 30c-.16 1.27 1.84 1.26 2 0a142.39 142.39 0 0 0 .7-30zM524.44 337.45c-.25-3.42.07-7.48-1.85-10.48-.35-.54-1.21 0-.86.5 2.08 3.23 1.59 8.22 1.86 11.94l.86 11.83c0 .64 1 .64 1 0zM573 267l-2.72 23.59-1.36 11.8c-.32 2.79.07 9.66-3.44 10.59a.5.5 0 0 0 .27 1c2.33-.62 3.07-2.88 3.41-5.06.69-4.43 1-8.93 1.55-13.38L574 267c.05-.63-.95-.63-1 0zM488.71 286.36c-.56-3.42-1.43-7.18-3.4-10.09-.36-.53-1.23 0-.86.5a24.86 24.86 0 0 1 3.26 17.23 13.17 13.17 0 0 1-11.7 10.3c-.63.06-.64 1.06 0 1a14.2 14.2 0 0 0 12.21-9.4 19.77 19.77 0 0 0 .49-9.54z"/><path class="cls-9" d="M484.61 275.27a19 19 0 0 0-3.77-3.5 17.63 17.63 0 0 0-2.16-1.28 10.37 10.37 0 0 1-2.7-1.34c-.44-.47-1.15.24-.71.71 1 1.1 2.84 1.39 4.12 2.17a17.92 17.92 0 0 1 4.5 4c.43.45 1.11-.27.72-.76z"/><path class="cls-19" d="M92.18-1.57h1279.7v461.86H92.18z"/><path class="cls-14" d="M1023.47 309.37c-2.57 1.73-5 4.34-8.61 1.47a.63.63 0 0 0-1 .61c.81 3.56 1.51 7.14 2.14 10.73-3.61-4.15-6.52-9.18-9.65-13.63a.63.63 0 0 0-1.14.48l1.91 8a8 8 0 0 0-3.3 1.7c-.61.52.27 1.4.88.88a6.73 6.73 0 0 1 3.11-1.47.52.52 0 0 0 .44-.54.58.58 0 0 0 .15-.55l-1.2-5c2.9 4.35 5.77 8.94 9.36 12.61a.63.63 0 0 0 1-.61c-.64-3.8-1.38-7.58-2.21-11.35 3.23 1.87 5.24.14 8.75-2.22.67-.48.04-1.56-.63-1.11z"/><path class="cls-9" d="M957.43 292.13a26.35 26.35 0 0 0-15.61 9c-3.89 4.9-6.48 13.12-2.56 18.61.93 1.3 3.1.05 2.16-1.26-4.15-5.82.46-14.65 5.22-18.65a25 25 0 0 1 11.46-5.27c1.58-.25.91-2.66-.66-2.41zM942.09 336.35a11.1 11.1 0 0 0-3.58 12.45c.54 1.5 3 .85 2.41-.66a8.71 8.71 0 0 1 2.94-10c1.27-1-.51-2.74-1.77-1.77z"/><path class="cls-3" d="M526.45 389.43c.4-.47.79-1 1.18-1.43-28.09 3.52-56.11 7.57-84 12.35-72.51 12.4-144.35 29.72-213.48 55.11q-12.91 4.74-25.67 9.85c-.78.31-48.15 19.53-48.07 20.2 0 .19-.87 2.12 2.91.58 13.23-5.38 45.18-17.58 46-17.89 68-27.2 139.01-46.2 210.95-59.9 36.11-6.85 72.45-12.38 108.91-17a9.57 9.57 0 0 1 1.27-1.87zM1432.36 488.16c-29.66-12.49-81.72-28.91-82.43-29.11-74.1-21.5-153.7-42.7-228.16-58.49-74.2-15.73-149.33-27.8-225.1-32.35-78.29-4.7-156.63-.08-234.69 6.28-39 3.18-78.07 6.83-117 11.41-.1.17-.2.35-.29.53l-.06.1v.08c-.14.37-.27.73-.42 1.09a13.45 13.45 0 0 1-.62 1.35c30.62-3.63 61.3-6.67 92-9.35C712.5 373 789.8 367.26 867 369.82c51.43 1.71 102.63 7.11 153.46 15q36.91 5.73 73.54 13.08c74.91 14.89 149.13 33.09 222.71 53.46 9.52 2.64 25.06 7.89 34.18 10.65.35.11 44.32 14.32 73.71 26.12z"/><g><path class="cls-7" d="M633.88 363.25s3.44-5.33-.11-10.23-33.16-15.69-45.19-24.1-22-5.8-26.9 4.55-31.91 62-42.65 64.88c0 0 1.58.62 10.6 1.82s11.42 2.87 13.27-4.7 17.27-34.3 23.46-42.38 14-11.6 20.7-1.6 21.66 8.78 25.27 21.53 12.88 6.45 32.52 23.86l13.59-.49s-8.61-.11-22.23-10.78-16-10.12-14.54-15.28c.72-2.58 2-4.95 4.1-6.15s4.01-3.71 8.11-.93z"/><path class="cls-4" d="M686.69 395.63s-31.35-12.07-42.13-27.34a10 10 0 0 0-.46 7.5c1.42 4 16.53 15.46 22.15 17.82s9.31 5.59 20.44 2.02zM520.08 398.61c-.06 0-3.95 4.31-4.78 5.48s2.23 2.77 6.52 2.12c2.47-.37 11-.22 14.68-.66 2.39-.29 4.69-.52 4.79-1.85.21-2.86-11.23.13-13.12-2.52-.77-1.08-.78-1.48-1.92-1.64s-5.32-.74-6.17-.93z"/><path class="cls-3" d="M633.88 363.25s3.44-5.33-.11-10.23-33.16-15.69-45.19-24.1a33.71 33.71 0 0 0-5.17-3c-9.68-4.46-6.05 17.13-.4 21.17a16.84 16.84 0 0 1 4.06 4.39c6.71 10 21.66 8.78 25.27 21.53s12.88 6.45 32.52 23.86l13.59-.49s-9.43-.67-23-11.34c-3.62-2.84-4.73-4.72-6.81-6.23-5.75-4.17-8-4.7-6.9-8.49.72-2.58 2-4.95 4.1-6.15s3.94-3.7 8.04-.92z"/><path class="cls-4" d="M621.19 382.59c4.59 3.74 9.92 9 23.67 14.27l13.59-.49s-6.12-.9-20.88-9.92c-6.63-4.05-9.16-8-12-9.85.12 2.49-3.46 4.98-4.38 5.99z"/><path class="cls-14" d="M628.36 366.18h.66a5.79 5.79 0 0 1 3.4-2 2.83 2.83 0 0 1 1.46-.93l3.09-.89a3.24 3.24 0 0 1 3.57 1.15L651 375.93a2.54 2.54 0 0 1 .61 2.36c1.17 3.63-2.06 8.38-6.3 7.52a3.13 3.13 0 0 1-1.8-1.12c-3.95.19-8.35-1.45-11.73-3.14s-7.79-4.23-9-8.13 1.73-6.92 5.58-7.24z"/></g><path class="cls-3" d="M1038.27 286.32c-.37.93-.29 2.46 1.71 13a144.17 144.17 0 0 0 5.33 21c1.38 4.12 1.91 6.24 7.84 4.4s12.18-3.78 16.76-4.52c2.32-.38 3.55-2.64.64-15.9s-3.43-14.2-4.33-18.7c-1.18-5.9-.8-5.52-6.39-4.29s-18.6 3.59-18.6 3.59z"/><path class="cls-10" d="M1060 295.69c-1.67-2.31-4-.47-5.3 1.23a15.9 15.9 0 0 0-.7-3.92 5.9 5.9 0 0 0 3.69-1.5c.66-.6 2-2.23.86-3s-2.51.6-3.25 1.24a7.87 7.87 0 0 0-1.78 1.94 16.67 16.67 0 0 0-1.1-2.21.41.41 0 0 0-.7.41 15.11 15.11 0 0 1 2.09 6.2 3.1 3.1 0 0 0-4.15-.16 2.52 2.52 0 0 0-1.15 1.48 3 3 0 0 0-.07 1 4.46 4.46 0 0 0 .25 1.59 19.93 19.93 0 0 0 2.44 4.63c.6.89 1.4 2.22 2.51 2.56s1.48-.09 2.16-.74c.36-.34.48-.78 1-.81 0 0 .93.4 1 .42a.42.42 0 0 0 .46-.19c1.19-2.48 3.67-7.5 1.74-10.17zm-4.24-5.27c.37-.32 2.31-2 2.23-.52 0 .58-1.28 1.4-1.74 1.66a5 5 0 0 1-2.11.63 14 14 0 0 1 1.62-1.77zM1065.75 309.37a51.9 51.9 0 0 0-13.88 3.86c-.38.16-.05.72.33.56a50.78 50.78 0 0 1 13.56-3.77c.39-.02.4-.7-.01-.65zM1068.08 313c-5.2.67-10 2.59-14.82 4.43-.38.15-.22.77.17.62 4.8-1.82 9.52-3.74 14.65-4.41.41-.08.41-.72 0-.64z"/><path class="cls-9" d="M125 328a21.09 21.09 0 0 1-3.41 8.56c-.36.53.5 1 .86.5a21.78 21.78 0 0 0 3.51-8.8c.04-.66-.89-.93-.96-.26zM140.49 311.83c-.23-.6-1.19-.34-1 .27a11.06 11.06 0 0 1-7.25 14.79.5.5 0 0 0 .27 1 12 12 0 0 0 7.98-16.06zM555.69 368.44a97.33 97.33 0 0 1-6.13 10.79.44.44 0 0 0-.07.29c-4 6.12-6.53 13.12-9.43 19.78-.25.58.61 1.09.86.5 2.95-6.78 5.55-13.92 9.63-20.12a.44.44 0 0 0 .07-.29 97.38 97.38 0 0 0 5.92-10.46c.29-.56-.54-1.07-.85-.49zM534 401.49a12.92 12.92 0 0 1-3.48.11.44.44 0 0 0-.26-.17 2.68 2.68 0 0 1-1.88-1.59c-.26-.59-1.12-.08-.86.5a3.58 3.58 0 0 0 2.19 1.94.44.44 0 0 0 .31.24 12.13 12.13 0 0 0 4 0c.63-.09.64-1.09-.02-1.03zM540.62 402.27a.38.38 0 0 0-.33-.26 10.24 10.24 0 0 1-1.08-.22.5.5 0 0 0-.27 1 10.19 10.19 0 0 0 1.06.21.51.51 0 0 0 .24.22c.37.15-.21.71-.32.8-.49.42.22 1.12.71.71.85-.73 1.05-1.96-.01-2.46zM652.17 376.45a44.42 44.42 0 0 1-11.25-13.29.47.47 0 0 0-.17-.18 3.4 3.4 0 0 0-2.48-.4 5.76 5.76 0 0 0-1.63.19 7.18 7.18 0 0 0-1 .49c.07-.35.15-.7.2-1.05a.5.5 0 0 0-.05-.3.51.51 0 0 0 0-.13c.59-8.78-6.83-14.62-14.07-17.85-9.47-4.23-19.37-7.66-29-11.41a50.19 50.19 0 0 1-6.5-4.4c-1.58-1.27-2.71-2.38-4.74-2.85-.63-.14-.89.82-.27 1 2.27.52 3.79 2.24 5.6 3.61a51.18 51.18 0 0 0 5.13 3.37.51.51 0 0 0 .21.15c8.67 3.38 17.38 6.69 26 10.14 7.87 3.14 17.33 8.43 16.67 18.29a.47.47 0 0 0 0 .23c-.1.62-.21 1.23-.36 1.85a.5.5 0 0 0 .48.63c.8-.08 1.33-.61 2.09-.81.54-.14 2.48-.39 3 0h.05a45.11 45.11 0 0 0 11.4 13.48c.52.34 1.19-.36.69-.76zM686.86 395.87a3.66 3.66 0 0 0-5-2.46c-.31-.93-1.59-1-2.55-1.23a33 33 0 0 1-8.56-3.24c-5.11-2.8-9.78-6.61-14.53-10-.53-.37-1 .49-.5.86 4.2 3 8.32 6.11 12.67 8.86a34.6 34.6 0 0 0 5.6 2.86c.79.32 7 1.8 7 2.39a.43.43 0 0 0 .4.47.46.46 0 0 0 .56.06 2.67 2.67 0 0 1 4 1.66.5.5 0 0 0 .91-.23zM657.31 395.36c-4.4-1.77-8.95-3.35-13-5.76a.5.5 0 0 0-.5.86c4.17 2.46 8.81 4.06 13.28 5.86.55.24.81-.73.22-.96zM198.73 410.34a9.41 9.41 0 0 0-.23-9c-.32-.56.5-1.13.82-.57a10.46 10.46 0 0 1 .32 10 .5.5 0 0 1-.91-.43zM222.1 420.8c7.17-.78 13.81.81 18 7.19 3.78 5.77 3.5 14.92.57 21a.5.5 0 0 1-.9-.43c2.78-5.76 3.1-14.51-.48-20a16 16 0 0 0-6.7-5.77c-3.35-1.53-6.81-1.38-10.39-1a.5.5 0 0 1-.1-.99z"/><path class="cls-3" d="M102.72 323.41c3.93-7.43 2.14-17.67-5.74-21.89a37.16 37.16 0 0 0-10.69-4.1c-4.64-.83-9.12-.59-13.31 1.94a19.41 19.41 0 0 0-6.88 7.35 24 24 0 0 0-2.24 17.11 9.09 9.09 0 0 0-2.42 1.85 13.35 13.35 0 0 0-3.51 8.49l.43 3.19a12 12 0 0 0 2.64 4.8 8 8 0 0 0-1.71.79 8.22 8.22 0 0 0 .18 14.2 6.73 6.73 0 0 0 5 .66 6.63 6.63 0 0 0 3.88-3 7.55 7.55 0 0 0 .89-3v-.08a15.38 15.38 0 0 0 1.58 1.9l3 2.35a15.38 15.38 0 0 0 2.39 1.03l2.67 1.12a15.11 15.11 0 0 0 8 0 19.29 19.29 0 0 0 9.12-5.29 21.18 21.18 0 0 0 3.11-4.15 16.86 16.86 0 0 0 2-5.09 11.36 11.36 0 0 0 .27-6 11.16 11.16 0 0 0-1.85-5.59 11.46 11.46 0 0 0-2.32-3 13.93 13.93 0 0 0 5.51-5.59z"/></g></g></svg>